<svg xmlns="http://www.w3.org/2000/svg" version="1.1" xmlns:xlink="http://www.w3.org/1999/xlink" xmlns:svgjs="http://svgjs.dev/svgjs" width="1440" height="560" preserveAspectRatio="none" viewBox="0 0 1440 560"><g mask="url(&quot;#SvgjsMask3454&quot;)" fill="none"><rect width="1440" height="560" x="0" y="0" fill="url(&quot;#SvgjsRadialGradient3455&quot;)"></rect><use xlink:href="#SvgjsSymbol3462" x="0" y="0"></use><use xlink:href="#SvgjsSymbol3462" x="720" y="0"></use></g><defs><mask id="SvgjsMask3454"><rect width="1440" height="560" fill="#ffffff"></rect></mask><radialGradient cx="100%" cy="100%" r="1545.06" gradientUnits="userSpaceOnUse" id="SvgjsRadialGradient3455"><stop stop-color="rgba(99, 99, 99, 1)" offset="0"></stop><stop stop-color="rgba(254, 254, 254, 1)" offset="1"></stop></radialGradient><path d="M-1 0 a1 1 0 1 0 2 0 a1 1 0 1 0 -2 0z" id="SvgjsPath3460"></path><path d="M-3 0 a3 3 0 1 0 6 0 a3 3 0 1 0 -6 0z" id="SvgjsPath3458"></path><path d="M-5 0 a5 5 0 1 0 10 0 a5 5 0 1 0 -10 0z" id="SvgjsPath3457"></path><path d="M2 -2 L-2 2z" id="SvgjsPath3459"></path><path d="M6 -6 L-6 6z" id="SvgjsPath3456"></path><path d="M30 -30 L-30 30z" id="SvgjsPath3461"></path></defs><symbol id="SvgjsSymbol3462"><use xlink:href="#SvgjsPath3456" x="30" y="30" stroke="rgba(0, 0, 0, 1)"></use><use xlink:href="#SvgjsPath3457" x="30" y="90" stroke="rgba(0, 0, 0, 1)"></use><use xlink:href="#SvgjsPath3456" x="30" y="150" stroke="rgba(0, 0, 0, 1)"></use><use xlink:href="#SvgjsPath3456" x="30" y="210" stroke="rgba(0, 0, 0, 1)"></use><use xlink:href="#SvgjsPath3457" x="30" y="270" stroke="rgba(0, 0, 0, 1)"></use><use xlink:href="#SvgjsPath3458" x="30" y="330" stroke="rgba(0, 0, 0, 1)"></use><use xlink:href="#SvgjsPath3456" x="30" y="390" stroke="rgba(0, 0, 0, 1)"></use><use xlink:href="#SvgjsPath3456" x="30" y="450" stroke="rgba(0, 0, 0, 1)"></use><use xlink:href="#SvgjsPath3456" x="30" y="510" stroke="rgba(0, 0, 0, 1)"></use><use xlink:href="#SvgjsPath3458" x="30" y="570" stroke="rgba(0, 0, 0, 1)"></use><use xlink:href="#SvgjsPath3459" x="90" y="30" stroke="rgba(0, 0, 0, 1)"></use><use xlink:href="#SvgjsPath3456" x="90" y="90" stroke="rgba(0, 0, 0, 1)"></use><use xlink:href="#SvgjsPath3459" x="90" y="150" stroke="rgba(0, 0, 0, 1)"></use><use xlink:href="#SvgjsPath3456" x="90" y="210" stroke="rgba(0, 0, 0, 1)"></use><use xlink:href="#SvgjsPath3458" x="90" y="270" stroke="rgba(0, 0, 0, 1)"></use><use xlink:href="#SvgjsPath3457" x="90" y="330" stroke="rgba(0, 0, 0, 1)"></use><use xlink:href="#SvgjsPath3460" x="90" y="390" stroke="rgba(0, 0, 0, 1)"></use><use xlink:href="#SvgjsPath3456" x="90" y="450" stroke="rgba(0, 0, 0, 1)"></use><use xlink:href="#SvgjsPath3457" x="90" y="510" stroke="rgba(0, 0, 0, 1)"></use><use xlink:href="#SvgjsPath3457" x="90" y="570" stroke="rgba(0, 0, 0, 1)"></use><use xlink:href="#SvgjsPath3461" x="150" y="30" stroke="rgba(0, 0, 0, 1)" stroke-width="3"></use><use xlink:href="#SvgjsPath3456" x="150" y="90" stroke="rgba(0, 0, 0, 1)"></use><use xlink:href="#SvgjsPath3460" x="150" y="150" stroke="rgba(0, 0, 0, 1)"></use><use xlink:href="#SvgjsPath3460" x="150" y="210" stroke="rgba(0, 0, 0, 1)"></use><use xlink:href="#SvgjsPath3456" x="150" y="270" stroke="rgba(0, 0, 0, 1)"></use><use xlink:href="#SvgjsPath3457" x="150" y="330" stroke="rgba(0, 0, 0, 1)"></use><use xlink:href="#SvgjsPath3457" x="150" y="390" stroke="rgba(0, 0, 0, 1)"></use><use xlink:href="#SvgjsPath3456" x="150" y="450" stroke="rgba(0, 0, 0, 1)"></use><use xlink:href="#SvgjsPath3456" x="150" y="510" stroke="rgba(0, 0, 0, 1)"></use><use xlink:href="#SvgjsPath3457" x="150" y="570" stroke="rgba(0, 0, 0, 1)"></use><use xlink:href="#SvgjsPath3458" x="210" y="30" stroke="rgba(0, 0, 0, 1)"></use><use xlink:href="#SvgjsPath3458" x="210" y="90" stroke="rgba(0, 0, 0, 1)"></use><use xlink:href="#SvgjsPath3460" x="210" y="150" stroke="rgba(0, 0, 0, 1)"></use><use xlink:href="#SvgjsPath3460" x="210" y="210" stroke="rgba(0, 0, 0, 1)"></use><use xlink:href="#SvgjsPath3457" x="210" y="270" stroke="rgba(0, 0, 0, 1)"></use><use xlink:href="#SvgjsPath3456" x="210" y="330" stroke="rgba(0, 0, 0, 1)"></use><use xlink:href="#SvgjsPath3456" x="210" y="390" stroke="rgba(0, 0, 0, 1)"></use><use xlink:href="#SvgjsPath3457" x="210" y="450" stroke="rgba(0, 0, 0, 1)"></use><use xlink:href="#SvgjsPath3459" x="210" y="510" stroke="rgba(0, 0, 0, 1)"></use><use xlink:href="#SvgjsPath3460" x="210" y="570" stroke="rgba(0, 0, 0, 1)"></use><use xlink:href="#SvgjsPath3457" x="270" y="30" stroke="rgba(0, 0, 0, 1)"></use><use xlink:href="#SvgjsPath3457" x="270" y="90" stroke="rgba(0, 0, 0, 1)"></use><use xlink:href="#SvgjsPath3459" x="270" y="150" stroke="rgba(0, 0, 0, 1)"></use><use xlink:href="#SvgjsPath3459" x="270" y="210" stroke="rgba(0, 0, 0, 1)"></use><use xlink:href="#SvgjsPath3458" x="270" y="270" stroke="rgba(0, 0, 0, 1)"></use><use xlink:href="#SvgjsPath3456" x="270" y="330" stroke="rgba(0, 0, 0, 1)"></use><use xlink:href="#SvgjsPath3457" x="270" y="390" stroke="rgba(0, 0, 0, 1)"></use><use xlink:href="#SvgjsPath3459" x="270" y="450" stroke="rgba(0, 0, 0, 1)"></use><use xlink:href="#SvgjsPath3459" x="270" y="510" stroke="rgba(0, 0, 0, 1)"></use><use xlink:href="#SvgjsPath3456" x="270" y="570" stroke="rgba(0, 0, 0, 1)"></use><use xlink:href="#SvgjsPath3456" x="330" y="30" stroke="rgba(0, 0, 0, 1)"></use><use xlink:href="#SvgjsPath3456" x="330" y="90" stroke="rgba(0, 0, 0, 1)"></use><use xlink:href="#SvgjsPath3457" x="330" y="150" stroke="rgba(0, 0, 0, 1)"></use><use xlink:href="#SvgjsPath3457" x="330" y="210" stroke="rgba(0, 0, 0, 1)"></use><use xlink:href="#SvgjsPath3456" x="330" y="270" stroke="rgba(0, 0, 0, 1)"></use><use xlink:href="#SvgjsPath3459" x="330" y="330" stroke="rgba(0, 0, 0, 1)"></use><use xlink:href="#SvgjsPath3458" x="330" y="390" stroke="rgba(0, 0, 0, 1)"></use><use xlink:href="#SvgjsPath3459" x="330" y="450" stroke="rgba(0, 0, 0, 1)"></use><use xlink:href="#SvgjsPath3456" x="330" y="510" stroke="rgba(0, 0, 0, 1)"></use><use xlink:href="#SvgjsPath3456" x="330" y="570" stroke="rgba(0, 0, 0, 1)"></use><use xlink:href="#SvgjsPath3456" x="390" y="30" stroke="rgba(0, 0, 0, 1)"></use><use xlink:href="#SvgjsPath3456" x="390" y="90" stroke="rgba(0, 0, 0, 1)"></use><use xlink:href="#SvgjsPath3458" x="390" y="150" stroke="rgba(0, 0, 0, 1)"></use><use xlink:href="#SvgjsPath3456" x="390" y="210" stroke="rgba(0, 0, 0, 1)"></use><use xlink:href="#SvgjsPath3457" x="390" y="270" stroke="rgba(0, 0, 0, 1)"></use><use xlink:href="#SvgjsPath3459" x="390" y="330" stroke="rgba(0, 0, 0, 1)"></use><use xlink:href="#SvgjsPath3459" x="390" y="390" stroke="rgba(0, 0, 0, 1)"></use><use xlink:href="#SvgjsPath3456" x="390" y="450" stroke="rgba(0, 0, 0, 1)"></use><use xlink:href="#SvgjsPath3456" x="390" y="510" stroke="rgba(0, 0, 0, 1)"></use><use xlink:href="#SvgjsPath3457" x="390" y="570" stroke="rgba(0, 0, 0, 1)"></use><use xlink:href="#SvgjsPath3458" x="450" y="30" stroke="rgba(0, 0, 0, 1)"></use><use xlink:href="#SvgjsPath3456" x="450" y="90" stroke="rgba(0, 0, 0, 1)"></use><use xlink:href="#SvgjsPath3456" x="450" y="150" stroke="rgba(0, 0, 0, 1)"></use><use xlink:href="#SvgjsPath3457" x="450" y="210" stroke="rgba(0, 0, 0, 1)"></use><use xlink:href="#SvgjsPath3457" x="450" y="270" stroke="rgba(0, 0, 0, 1)"></use><use xlink:href="#SvgjsPath3460" x="450" y="330" stroke="rgba(0, 0, 0, 1)"></use><use xlink:href="#SvgjsPath3457" x="450" y="390" stroke="rgba(0, 0, 0, 1)"></use><use xlink:href="#SvgjsPath3459" x="450" y="450" stroke="rgba(0, 0, 0, 1)"></use><use xlink:href="#SvgjsPath3457" x="450" y="510" stroke="rgba(0, 0, 0, 1)"></use><use xlink:href="#SvgjsPath3459" x="450" y="570" stroke="rgba(0, 0, 0, 1)"></use><use xlink:href="#SvgjsPath3460" x="510" y="30" stroke="rgba(0, 0, 0, 1)"></use><use xlink:href="#SvgjsPath3460" x="510" y="90" stroke="rgba(0, 0, 0, 1)"></use><use xlink:href="#SvgjsPath3461" x="510" y="150" stroke="rgba(0, 0, 0, 1)" stroke-width="3"></use><use xlink:href="#SvgjsPath3459" x="510" y="210" stroke="rgba(0, 0, 0, 1)"></use><use xlink:href="#SvgjsPath3458" x="510" y="270" stroke="rgba(0, 0, 0, 1)"></use><use xlink:href="#SvgjsPath3456" x="510" y="330" stroke="rgba(0, 0, 0, 1)"></use><use xlink:href="#SvgjsPath3458" x="510" y="390" stroke="rgba(0, 0, 0, 1)"></use><use xlink:href="#SvgjsPath3457" x="510" y="450" stroke="rgba(0, 0, 0, 1)"></use><use xlink:href="#SvgjsPath3457" x="510" y="510" stroke="rgba(0, 0, 0, 1)"></use><use xlink:href="#SvgjsPath3459" x="510" y="570" stroke="rgba(0, 0, 0, 1)"></use><use xlink:href="#SvgjsPath3457" x="570" y="30" stroke="rgba(0, 0, 0, 1)"></use><use xlink:href="#SvgjsPath3457" x="570" y="90" stroke="rgba(0, 0, 0, 1)"></use><use xlink:href="#SvgjsPath3459" x="570" y="150" stroke="rgba(0, 0, 0, 1)"></use><use xlink:href="#SvgjsPath3460" x="570" y="210" stroke="rgba(0, 0, 0, 1)"></use><use xlink:href="#SvgjsPath3458" x="570" y="270" stroke="rgba(0, 0, 0, 1)"></use><use xlink:href="#SvgjsPath3456" x="570" y="330" stroke="rgba(0, 0, 0, 1)"></use><use xlink:href="#SvgjsPath3457" x="570" y="390" stroke="rgba(0, 0, 0, 1)"></use><use xlink:href="#SvgjsPath3458" x="570" y="450" stroke="rgba(0, 0, 0, 1)"></use><use xlink:href="#SvgjsPath3459" x="570" y="510" stroke="rgba(0, 0, 0, 1)"></use><use xlink:href="#SvgjsPath3459" x="570" y="570" stroke="rgba(0, 0, 0, 1)"></use><use xlink:href="#SvgjsPath3459" x="630" y="30" stroke="rgba(0, 0, 0, 1)"></use><use xlink:href="#SvgjsPath3457" x="630" y="90" stroke="rgba(0, 0, 0, 1)"></use><use xlink:href="#SvgjsPath3456" x="630" y="150" stroke="rgba(0, 0, 0, 1)"></use><use xlink:href="#SvgjsPath3457" x="630" y="210" stroke="rgba(0, 0, 0, 1)"></use><use xlink:href="#SvgjsPath3459" x="630" y="270" stroke="rgba(0, 0, 0, 1)"></use><use xlink:href="#SvgjsPath3456" x="630" y="330" stroke="rgba(0, 0, 0, 1)"></use><use xlink:href="#SvgjsPath3457" x="630" y="390" stroke="rgba(0, 0, 0, 1)"></use><use xlink:href="#SvgjsPath3457" x="630" y="450" stroke="rgba(0, 0, 0, 1)"></use><use xlink:href="#SvgjsPath3457" x="630" y="510" stroke="rgba(0, 0, 0, 1)"></use><use xlink:href="#SvgjsPath3460" x="630" y="570" stroke="rgba(0, 0, 0, 1)"></use><use xlink:href="#SvgjsPath3456" x="690" y="30" stroke="rgba(0, 0, 0, 1)"></use><use xlink:href="#SvgjsPath3457" x="690" y="90" stroke="rgba(0, 0, 0, 1)"></use><use xlink:href="#SvgjsPath3457" x="690" y="150" stroke="rgba(0, 0, 0, 1)"></use><use xlink:href="#SvgjsPath3457" x="690" y="210" stroke="rgba(0, 0, 0, 1)"></use><use xlink:href="#SvgjsPath3456" x="690" y="270" stroke="rgba(0, 0, 0, 1)"></use><use xlink:href="#SvgjsPath3456" x="690" y="330" stroke="rgba(0, 0, 0, 1)"></use><use xlink:href="#SvgjsPath3459" x="690" y="390" stroke="rgba(0, 0, 0, 1)"></use><use xlink:href="#SvgjsPath3458" x="690" y="450" stroke="rgba(0, 0, 0, 1)"></use><use xlink:href="#SvgjsPath3457" x="690" y="510" stroke="rgba(0, 0, 0, 1)"></use><use xlink:href="#SvgjsPath3456" x="690" y="570" stroke="rgba(0, 0, 0, 1)"></use></symbol></svg>